<svg width="488" height="547" viewBox="0 0 488 547" fill="none" xmlns="http://www.w3.org/2000/svg">
<g clip-path="url(#clip0_383_1691)">
<path d="M478.121 146.862C474.879 143.59 471.022 140.993 466.773 139.221C462.523 137.449 457.965 136.536 453.362 136.536C448.758 136.536 444.2 137.449 439.951 139.221C435.701 140.993 431.844 143.59 428.603 146.862L268.89 306.734C265.648 310.005 261.791 312.602 257.541 314.374C253.292 316.147 248.734 317.059 244.131 317.059C239.527 317.059 234.969 316.147 230.72 314.374C226.47 312.602 222.613 310.005 219.372 306.734L59.6585 146.862C56.4167 143.59 52.5598 140.993 48.3104 139.221C44.0609 137.449 39.503 136.536 34.8995 136.536C30.296 136.536 25.738 137.449 21.4886 139.221C17.2391 140.993 13.3823 143.59 10.1405 146.862C3.64555 153.402 -2.24787e-06 162.249 -3.05407e-06 171.471C-3.86026e-06 180.693 3.64555 189.54 10.1405 196.08L170.202 356.301C189.818 375.912 216.407 386.927 244.131 386.927C271.854 386.927 298.443 375.912 318.059 356.301L478.121 196.08C484.616 189.54 488.261 180.693 488.261 171.471C488.261 162.249 484.616 153.402 478.121 146.862Z" fill="#352F36"/>
<line x1="243.05" y1="308.218" x2="243.05" y2="33.907" stroke="#352F36" stroke-width="67.814" stroke-linecap="round"/>
<rect y="387" width="488" height="160" fill="white"/>
</g>
<defs>
<clipPath id="clip0_383_1691">
<rect width="488" height="547" fill="white"/>
</clipPath>
</defs>
</svg>
