<svg width="488" height="547" viewBox="0 0 488 547" fill="none" xmlns="http://www.w3.org/2000/svg">
<g clip-path="url(#clip0_384_1692)">
<path d="M478.121 306.862C474.879 303.59 471.022 300.993 466.773 299.221C462.523 297.449 457.965 296.536 453.362 296.536C448.758 296.536 444.2 297.449 439.951 299.221C435.701 300.993 431.844 303.59 428.603 306.862L268.89 466.734C265.648 470.005 261.791 472.602 257.541 474.374C253.292 476.147 248.734 477.059 244.131 477.059C239.527 477.059 234.969 476.147 230.72 474.374C226.47 472.602 222.613 470.005 219.372 466.734L59.6585 306.862C56.4167 303.59 52.5598 300.993 48.3104 299.221C44.0609 297.449 39.503 296.536 34.8995 296.536C30.296 296.536 25.738 297.449 21.4886 299.221C17.2391 300.993 13.3823 303.59 10.1405 306.862C3.64555 313.402 -2.24787e-06 322.249 -3.05407e-06 331.471C-3.86026e-06 340.693 3.64555 349.54 10.1405 356.08L170.202 516.301C189.818 535.912 216.407 546.927 244.131 546.927C271.854 546.927 298.443 535.912 318.059 516.301L478.121 356.08C484.616 349.54 488.261 340.693 488.261 331.471C488.261 322.249 484.616 313.402 478.121 306.862Z" fill="#352F36"/>
<line x1="243.093" y1="468.093" x2="243.093" y2="33.907" stroke="#352F36" stroke-width="67.814" stroke-linecap="round"/>
</g>
<defs>
<clipPath id="clip0_384_1692">
<rect width="488" height="547" fill="white"/>
</clipPath>
</defs>
</svg>
